<?xml version="1.0" standalone="no"?><!DOCTYPE svg PUBLIC "-//W3C//DTD SVG 1.1//EN" "http://www.w3.org/Graphics/SVG/1.1/DTD/svg11.dtd"><svg t="1778767080234" class="icon" viewBox="0 0 1725 1024" version="1.1" xmlns="http://www.w3.org/2000/svg" p-id="6160" xmlns:xlink="http://www.w3.org/1999/xlink" width="336.9140625" height="200"><path d="M865.09712011 1024C582.81344011 1024 353.09712011 794.28368 353.09712011 512S582.81344011 0 865.09712011 0 1377.09712012 229.71632 1377.09712012 512 1147.38079911 1024 865.09712011 1024z m0-981.459941C606.21047312 42.540059 395.63717911 253.113353 395.63717911 512S606.21047312 981.459941 865.09712011 981.459941 1334.55706111 770.886647 1334.55706111 512 1123.98376713 42.540059 865.09712011 42.540059z" p-id="6161" fill="#aea834"></path><path d="M1083.87456812 385.89911c-17.016024 0-30.993472 13.977448-30.993472 30.993472 0 4.254006 0.911573 8.508012 2.430861 12.154302L954.73510211 470.979228l-70.79881299-121.543026c8.204154-5.469436 13.369733-14.889021 13.36973299-25.524036 0-17.016024-13.977448-30.993472-30.993472-30.993472S835.3190781 306.896142 835.3190781 323.912166c0 10.331157 5.165579 19.750742 13.06587601 25.220178l-78.39525201 121.543027-92.068843-41.020772c1.823145-3.950148 2.734718-8.204154 2.73471803-12.762017 0-17.016024-13.977448-30.993472-30.99347202-30.993472s-30.993472 13.673591-30.99347199 30.689614c0 16.712166 13.369733 30.689614 30.38575699 30.993472l48.009496 206.623145c1.823145 7.900297 8.811869 13.369733 16.71216601 13.369733H1018.5451911c8.204154 0 15.192878-5.469436 16.71216602-13.369733l48.00949599-206.623145h0.60771501c17.016024 0 30.993472-13.977448 30.99347198-30.993472-0.303858-16.712166-13.977448-30.689614-30.99347198-30.689614z m-79.002967 247.340059H727.7535001L690.37901911 473.106231l79.002967 35.247478c7.900297 3.342433 17.016024 0.911573 21.57388799-6.381009l74.74896101-115.769733 66.84866499 114.858161c4.254006 7.596439 13.673591 10.635015 21.57388701 7.292581l88.42255201-36.766765-37.678338 161.652225z m10.33115701 59.859941H717.1184851c-9.723442 0-17.319881 7.596439-17.31988098 17.319881s7.596439 17.319881 17.31988098 17.319881h298.08427303c9.723442 0 17.319881-7.596439 17.31988099-17.319881s-7.596439-17.319881-17.31988099-17.319881z" p-id="6162" fill="#aea834"></path></svg>