<?xml version="1.0" standalone="no"?><!DOCTYPE svg PUBLIC "-//W3C//DTD SVG 1.1//EN" "http://www.w3.org/Graphics/SVG/1.1/DTD/svg11.dtd"><svg t="1778850350814" class="icon" viewBox="0 0 1024 1024" version="1.1" xmlns="http://www.w3.org/2000/svg" p-id="31261" xmlns:xlink="http://www.w3.org/1999/xlink" width="200" height="200"><path d="M874.176204 149.973929A511.953678 511.953678 0 0 0 83.084708 791.244935a35.735358 35.735358 0 0 0 59.678049-38.906872 440.170277 440.170277 0 1 1 141.735365 137.0451 35.735358 35.735358 0 0 0-36.852088 60.928786A511.953678 511.953678 0 0 0 874.176204 149.973929z m-184.260441 156.342193a65.261698 65.261698 0 1 0 66.199751 65.261698 65.70839 65.70839 0 0 0-66.199751-65.261698zM337.699137 436.839518a65.261698 65.261698 0 1 0-66.557105-65.217029A65.70839 65.70839 0 0 0 337.386452 436.884187z m161.836504 145.35357a265.960405 265.960405 0 0 0-222.273929 121.276873 34.216606 34.216606 0 0 0 28.275602 52.977669h2.590814a32.87653 32.87653 0 0 0 27.337549-14.160136 196.544471 196.544471 0 0 1 328.809966 0 32.787191 32.787191 0 0 0 27.382219 14.204805h1.608091a34.171936 34.171936 0 0 0 28.275602-52.933c-48.46608-73.257485-129.808689-121.276873-222.005914-121.276872z m0 0" fill="#f46952" p-id="31262"></path></svg>